# xmcd
#
# Track frame offsets:
#	150
#	15347
#	34378
#	51952
#	66753
#	86970
#	106719
#	127466
#	142655
#	155960
#	174199
#	187854
#	199969
#	209942
#	230164
#	247961
#	263965
#	314415
#
# Disc length: 4461 seconds
#
# Revision: 0
# Processed by: cddbd v1.5.1PL0 Copyright (c) Steve Scherf et al.
# Submitted via: audiograbber 1.83.01
#
DISCID=0e116b12
DTITLE=New Grass Revival - Grass Roots - The Best Of New Grass Revival Disc 2
DYEAR=2005
DGENRE=Bluegrass
TTITLE0=One More Love Song
TTITLE1=On The Boulevard
TTITLE2=One Love - People Get Ready
TTITLE3=Seven By Seven
TTITLE4=In The Middle Of The Night
TTITLE5=Sweet Release
TTITLE6=Metric Lips
TTITLE7=Unconditional Love
TTITLE8=Looking Past You
TTITLE9=Revival
TTITLE10=Ain't That Peculiar
TTITLE11=Callin' Baton Rouge
TTITLE12=I'm Down
TTITLE13=Angel Eyes
TTITLE14=Don't You Hear Jerusalem Moan
TTITLE15=Do What You Gotta Do
TTITLE16=Singing The Blues
TTITLE17=Can't Stop Now
EXTD=
EXTT0=
EXTT1=
EXTT2=
EXTT3=
EXTT4=
EXTT5=
EXTT6=
EXTT7=
EXTT8=
EXTT9=
EXTT10=
EXTT11=
EXTT12=
EXTT13=
EXTT14=
EXTT15=
EXTT16=
EXTT17=
PLAYORDER=
